<svg xmlns="http://www.w3.org/2000/svg" width="512" height="512" viewBox="0 0 512 512">
  <!-- Background -->
  <rect width="512" height="512" rx="60" fill="#2563eb" />
  
  <!-- Box icon -->
  <rect x="140" y="180" width="232" height="192" rx="20" fill="white" opacity="0.9" />
  
  <!-- Box top flaps -->
  <path d="M140 180 L256 120 L372 180" stroke="white" stroke-width="20" fill="none" />
  
  <!-- Box lines -->
  <line x1="200" y1="240" x2="312" y2="240" stroke="#2563eb" stroke-width="14" />
  <line x1="200" y1="280" x2="312" y2="280" stroke="#2563eb" stroke-width="14" />
  <line x1="200" y1="320" x2="312" y2="320" stroke="#2563eb" stroke-width="14" />
  
  <!-- Barcode -->
  <rect x="190" y="360" width="132" height="40" rx="5" fill="white" />
  <line x1="200" y1="365" x2="200" y2="395" stroke="#2563eb" stroke-width="4" />
  <line x1="210" y1="365" x2="210" y2="395" stroke="#2563eb" stroke-width="2" />
  <line x1="220" y1="365" x2="220" y2="395" stroke="#2563eb" stroke-width="6" />
  <line x1="235" y1="365" x2="235" y2="395" stroke="#2563eb" stroke-width="3" />
  <line x1="245" y1="365" x2="245" y2="395" stroke="#2563eb" stroke-width="4" />
  <line x1="255" y1="365" x2="255" y2="395" stroke="#2563eb" stroke-width="2" />
  <line x1="270" y1="365" x2="270" y2="395" stroke="#2563eb" stroke-width="5" />
  <line x1="280" y1="365" x2="280" y2="395" stroke="#2563eb" stroke-width="2" />
  <line x1="290" y1="365" x2="290" y2="395" stroke="#2563eb" stroke-width="3" />
  <line x1="302" y1="365" x2="302" y2="395" stroke="#2563eb" stroke-width="6" />
  <line x1="312" y1="365" x2="312" y2="395" stroke="#2563eb" stroke-width="2" />
</svg>