<svg xmlns="http://www.w3.org/2000/svg" width="256" height="256" viewBox="0 0 256 256">
  <!-- Background -->
  <rect width="256" height="256" rx="30" fill="#2563eb" />
  
  <!-- Box icon -->
  <rect x="70" y="90" width="116" height="96" rx="10" fill="white" opacity="0.9" />
  
  <!-- Box top flaps -->
  <path d="M70 90 L128 60 L186 90" stroke="white" stroke-width="10" fill="none" />
  
  <!-- Box lines -->
  <line x1="100" y1="120" x2="156" y2="120" stroke="#2563eb" stroke-width="7" />
  <line x1="100" y1="140" x2="156" y2="140" stroke="#2563eb" stroke-width="7" />
  <line x1="100" y1="160" x2="156" y2="160" stroke="#2563eb" stroke-width="7" />
  
  <!-- Barcode -->
  <rect x="95" y="180" width="66" height="20" rx="2" fill="white" />
  <line x1="100" y1="182" x2="100" y2="198" stroke="#2563eb" stroke-width="2" />
  <line x1="105" y1="182" x2="105" y2="198" stroke="#2563eb" stroke-width="1" />
  <line x1="110" y1="182" x2="110" y2="198" stroke="#2563eb" stroke-width="3" />
  <line x1="117" y1="182" x2="117" y2="198" stroke="#2563eb" stroke-width="2" />
  <line x1="122" y1="182" x2="122" y2="198" stroke="#2563eb" stroke-width="2" />
  <line x1="127" y1="182" x2="127" y2="198" stroke="#2563eb" stroke-width="1" />
  <line x1="135" y1="182" x2="135" y2="198" stroke="#2563eb" stroke-width="3" />
  <line x1="140" y1="182" x2="140" y2="198" stroke="#2563eb" stroke-width="1" />
  <line x1="145" y1="182" x2="145" y2="198" stroke="#2563eb" stroke-width="2" />
  <line x1="151" y1="182" x2="151" y2="198" stroke="#2563eb" stroke-width="3" />
  <line x1="156" y1="182" x2="156" y2="198" stroke="#2563eb" stroke-width="1" />
</svg>